<svg width="5017" height="3493" viewBox="0 0 5017 3493" fill="none" xmlns="http://www.w3.org/2000/svg">
<rect x="3186.14" y="3194.14" width="541" height="3194" transform="rotate(-180 3186.14 3194.14)" fill="#000"/>
<path d="M3428.14 1994.59L3855.71 1663.14L4974.14 3194.33L4358.17 3194.33L3428.14 1994.59Z" fill="#000"/>
<path fill-rule="evenodd" clip-rule="evenodd" d="M2371.24 882.721C2529.02 1053.74 2625.73 1272.19 2646.28 1503.96L2888.93 1482.45L2945.11 1477.47L3187.76 1455.95L3187.75 1455.8C3178.8 1355.01 3160.35 1255.88 3132.94 1159.63C3064.82 920.4 2941.33 698.981 2770.78 514.116C2531.59 254.84 2213.27 82.0582 1865.54 22.7414C1517.8 -36.5754 1160.21 20.9114 848.586 186.228C536.962 351.544 288.843 615.387 142.96 936.568C-2.92248 1257.75 -38.3578 1618.19 42.1855 1961.64C122.729 2305.08 314.718 2612.19 588.183 2835.02C861.648 3057.86 1201.2 3183.88 1553.83 3193.42C1805.26 3200.22 2053.25 3147.53 2278.22 3041.42C2362.62 3001.62 2443.78 2954.3 2520.67 2899.79L2521.02 2900.23L2528.06 2894.52C2531.11 2892.32 2534.16 2890.12 2537.2 2887.9L2537.43 2887.74L2537.05 2887.21L4905.83 963.277L4563.43 541.713L2205.21 2457.07C2019.51 2588.4 1796.15 2656.17 1568.52 2650.01C1335.93 2643.72 1111.96 2560.6 931.576 2413.61C751.196 2266.63 624.558 2064.05 571.431 1837.52C518.304 1610.98 541.677 1373.23 637.903 1161.37C734.128 949.52 897.79 775.487 1103.34 666.443C1308.89 557.399 1544.76 519.48 1774.13 558.606C2003.5 597.732 2213.46 711.7 2371.24 882.721Z" fill="#000"/>
<path d="M3030.29 2764.57C3030.29 2771.21 3029.12 2777.86 3026.78 2784.5C3024.43 2790.94 3021.01 2797.19 3016.52 2803.25C3011.83 2809.3 3005.68 2814.57 2998.07 2819.07C2990.45 2823.56 2981.37 2826 2970.82 2826.39H2865.06C2859.59 2826.39 2855.1 2824.44 2851.58 2820.53C2847.87 2816.43 2846.01 2811.64 2846.01 2806.18C2846.99 2794.46 2853.34 2788.11 2865.06 2787.13H2968.48C2973.16 2786.94 2977.17 2785.96 2980.49 2784.2C2983.61 2782.45 2986.15 2780.49 2988.1 2778.34C2989.86 2776.2 2991.23 2774.05 2992.21 2771.9C2992.99 2769.55 2993.38 2767.21 2993.38 2764.87C2993.38 2762.52 2992.99 2760.18 2992.21 2757.84C2991.23 2755.49 2989.86 2753.25 2988.1 2751.1C2986.15 2748.95 2983.61 2747 2980.49 2745.24C2977.17 2743.48 2973.16 2742.6 2968.48 2742.6H2865.06C2859.59 2742.6 2855.1 2740.65 2851.58 2736.74C2847.87 2732.64 2846.01 2727.86 2846.01 2722.39C2846.99 2710.67 2853.34 2704.22 2865.06 2703.05H2968.48C2973.16 2702.86 2977.07 2701.88 2980.19 2700.12C2983.51 2698.36 2986.15 2696.41 2988.1 2694.26C2989.86 2692.11 2991.23 2689.96 2992.21 2687.82C2992.99 2685.47 2993.38 2683.13 2993.38 2680.79C2993.38 2678.44 2992.99 2676.1 2992.21 2673.75C2991.23 2671.41 2989.86 2669.16 2988.1 2667.02C2986.15 2664.87 2983.61 2662.91 2980.49 2661.16C2977.17 2659.4 2973.16 2658.52 2968.48 2658.52H2865.06C2859.59 2658.52 2855.1 2656.57 2851.58 2652.66C2847.87 2648.56 2846.01 2643.77 2846.01 2638.3C2846.99 2626.59 2853.34 2620.14 2865.06 2618.97H2970.82C2981.37 2618.97 2990.45 2621.31 2998.07 2626C3005.68 2630.49 3011.83 2635.77 3016.52 2641.82C3021.01 2647.68 3024.43 2653.93 3026.78 2660.57C3029.12 2667.02 3030.29 2673.66 3030.29 2680.49C3030.29 2687.13 3029.12 2693.77 3026.78 2700.41C3024.43 2706.86 3020.92 2713.11 3016.23 2719.16C3015.45 2720.34 3014.57 2721.41 3013.59 2722.39C3014.57 2723.56 3015.45 2724.63 3016.23 2725.61C3020.92 2731.66 3024.43 2738.01 3026.78 2744.65C3029.12 2751.1 3030.29 2757.74 3030.29 2764.57ZM3023.55 2520.53C3022.97 2537.72 3018.96 2550.71 3011.54 2559.5C3003.92 2568.29 2995.43 2574.63 2986.05 2578.54C2976.48 2582.45 2966.82 2584.4 2957.05 2584.4C2946.89 2584.4 2937.13 2582.54 2927.75 2578.83C2918.18 2574.93 2909.69 2568.58 2902.26 2559.79C2894.65 2550.8 2890.74 2539.48 2890.55 2525.8V2414.48C2890.55 2409.01 2892.4 2404.42 2896.11 2400.71C2899.63 2396.8 2903.92 2394.85 2909 2394.85C2914.28 2394.85 2918.77 2396.8 2922.48 2400.71C2926 2404.42 2927.75 2409.01 2927.75 2414.48V2524.05C2927.75 2528.34 2929.22 2532.15 2932.15 2535.47C2935.08 2538.6 2938.89 2540.94 2943.57 2542.5C2948.26 2543.87 2952.85 2544.55 2957.34 2544.55C2962.23 2544.55 2967.01 2543.87 2971.7 2542.5C2976.39 2540.94 2980.19 2538.6 2983.12 2535.47C2985.86 2532.15 2987.32 2528.34 2987.52 2524.05V2414.48C2987.52 2409.01 2989.28 2404.42 2992.79 2400.71C2996.31 2396.8 3000.51 2394.85 3005.39 2394.85C3010.47 2394.85 3014.76 2396.8 3018.28 2400.71C3021.8 2404.42 3023.55 2409.01 3023.55 2414.48V2520.53ZM2956.46 2398.36C2960.17 2398.36 2963.4 2400.02 2966.13 2403.34C2968.67 2406.27 2969.94 2409.98 2969.94 2414.48V2510.28C2969.94 2514.77 2968.67 2518.58 2966.13 2521.7C2963.4 2524.83 2960.17 2526.39 2956.46 2526.39C2952.95 2526.39 2949.82 2524.83 2947.09 2521.7C2944.55 2518.58 2943.28 2514.77 2943.28 2510.28V2414.48C2943.28 2409.98 2944.65 2406.18 2947.38 2403.05C2949.92 2399.93 2952.95 2398.36 2956.46 2398.36ZM2865.06 2321.61H2976.68C2981.56 2321.61 2984.1 2319.07 2984.3 2313.99V2211.45C2984.1 2207.74 2982.54 2204.52 2979.61 2201.78C2976.48 2199.05 2972.97 2197.09 2969.06 2195.92C2964.96 2194.55 2960.86 2193.87 2956.76 2193.87C2952.85 2193.87 2948.94 2194.55 2945.04 2195.92C2940.94 2197.09 2937.42 2199.05 2934.49 2201.78C2931.37 2204.52 2929.8 2207.74 2929.8 2211.45V2286.45C2929.8 2291.92 2927.95 2296.61 2924.24 2300.51C2920.33 2304.22 2915.64 2306.08 2910.17 2306.08C2904.71 2306.08 2900.12 2304.12 2896.41 2300.22C2892.5 2296.51 2890.55 2291.92 2890.55 2286.45V2212.62C2890.74 2198.95 2894.65 2187.72 2902.26 2178.93C2909.69 2169.95 2918.18 2163.6 2927.75 2159.89C2937.13 2155.98 2946.89 2154.03 2957.05 2154.03C2966.82 2154.03 2976.48 2155.98 2986.05 2159.89C2995.43 2163.79 3003.92 2170.14 3011.54 2178.93C3018.96 2187.72 3022.97 2200.71 3023.55 2217.89V2340.94C3023.55 2346.41 3021.8 2351.1 3018.28 2355C3014.57 2358.91 3009.98 2360.96 3004.51 2361.16H2865.06C2859.59 2361.16 2855.1 2359.2 2851.58 2355.3C2847.87 2351.2 2846.01 2346.41 2846.01 2340.94C2846.99 2329.22 2853.34 2322.78 2865.06 2321.61ZM2850.7 1845.24C2851.48 1831.57 2856.76 1820.34 2866.52 1811.55C2876.09 1802.76 2887.03 1796.41 2899.33 1792.5C2911.64 1788.6 2924.24 1786.64 2937.13 1786.64C2950.02 1786.64 2962.62 1788.6 2974.92 1792.5C2987.23 1796.21 2998.26 1802.56 3008.03 1811.55C3017.6 1820.34 3022.77 1831.57 3023.55 1845.24V1953.05C3023.36 1958.32 3021.5 1962.82 3017.99 1966.53C3014.28 1970.04 3009.78 1971.9 3004.51 1972.09H2931.85C2926.39 1971.9 2921.89 1969.85 2918.38 1965.94C2914.67 1962.04 2912.81 1957.35 2912.81 1951.88C2913.01 1946.61 2914.96 1942.11 2918.67 1938.4C2922.19 1934.69 2926.58 1932.74 2931.85 1932.54H2976.39C2981.66 1932.54 2984.3 1929.81 2984.3 1924.34V1855.2C2983.91 1847.78 2981.07 1841.62 2975.8 1836.74C2970.53 1831.86 2964.57 1828.34 2957.93 1826.2C2951.09 1823.85 2944.16 1822.68 2937.13 1822.68C2930.1 1822.68 2923.26 1823.85 2916.62 1826.2C2909.78 1828.34 2903.73 1831.86 2898.46 1836.74C2893.18 1841.62 2890.35 1847.78 2889.96 1855.2V1953.05C2888.98 1964.77 2882.64 1971.12 2870.92 1972.09C2865.45 1972.09 2860.76 1970.34 2856.85 1966.82C2852.95 1963.11 2850.9 1958.52 2850.7 1953.05V1845.24ZM3023.55 1694.65C3022.97 1711.84 3018.96 1724.83 3011.54 1733.62C3003.92 1742.41 2995.43 1748.75 2986.05 1752.66C2976.48 1756.57 2966.82 1758.52 2957.05 1758.52C2946.89 1758.52 2937.13 1756.66 2927.75 1752.95C2918.18 1749.05 2909.69 1742.7 2902.26 1733.91C2894.65 1724.93 2890.74 1713.6 2890.55 1699.93V1588.6C2890.55 1583.13 2892.4 1578.54 2896.11 1574.83C2899.63 1570.92 2903.92 1568.97 2909 1568.97C2914.28 1568.97 2918.77 1570.92 2922.48 1574.83C2926 1578.54 2927.75 1583.13 2927.75 1588.6V1698.17C2927.75 1702.46 2929.22 1706.27 2932.15 1709.59C2935.08 1712.72 2938.89 1715.06 2943.57 1716.62C2948.26 1717.99 2952.85 1718.68 2957.34 1718.68C2962.23 1718.68 2967.01 1717.99 2971.7 1716.62C2976.39 1715.06 2980.19 1712.72 2983.12 1709.59C2985.86 1706.27 2987.32 1702.46 2987.52 1698.17V1588.6C2987.52 1583.13 2989.28 1578.54 2992.79 1574.83C2996.31 1570.92 3000.51 1568.97 3005.39 1568.97C3010.47 1568.97 3014.76 1570.92 3018.28 1574.83C3021.8 1578.54 3023.55 1583.13 3023.55 1588.6V1694.65ZM2956.46 1572.48C2960.17 1572.48 2963.4 1574.14 2966.13 1577.46C2968.67 1580.39 2969.94 1584.11 2969.94 1588.6V1684.4C2969.94 1688.89 2968.67 1692.7 2966.13 1695.82C2963.4 1698.95 2960.17 1700.51 2956.46 1700.51C2952.95 1700.51 2949.82 1698.95 2947.09 1695.82C2944.55 1692.7 2943.28 1688.89 2943.28 1684.4V1588.6C2943.28 1584.11 2944.65 1580.3 2947.38 1577.17C2949.92 1574.05 2952.95 1572.48 2956.46 1572.48ZM2907.54 1349.24C2912.42 1349.24 2916.52 1351.2 2919.84 1355.1C2922.97 1358.81 2924.53 1363.4 2924.53 1368.87V1492.8C2924.53 1495.34 2925.02 1497.39 2926 1498.95C2926.97 1500.51 2928.05 1501.68 2929.22 1502.46C2930.19 1503.25 2931.07 1503.64 2931.85 1503.64C2932.83 1503.64 2933.91 1503.25 2935.08 1502.46C2936.05 1501.68 2937.03 1500.51 2938.01 1498.95C2938.79 1497.39 2939.28 1495.34 2939.47 1492.8V1397C2939.67 1384.69 2942.11 1374.54 2946.8 1366.53C2951.29 1358.52 2956.66 1352.86 2962.91 1349.54C2968.96 1346.02 2975.12 1344.26 2981.37 1344.26C2987.42 1344.26 2993.57 1346.02 2999.82 1349.54C3005.88 1353.05 3011.25 1358.81 3015.94 1366.82C3020.43 1374.63 3022.67 1384.69 3022.67 1397C3022.87 1399.14 3022.97 1400.71 3022.97 1401.68V1515.36C3022.97 1520.82 3021.41 1525.51 3018.28 1529.42C3014.96 1533.13 3010.96 1534.98 3006.27 1534.98C3001.39 1534.98 2997.28 1533.03 2993.96 1529.12C2990.84 1525.41 2989.28 1520.82 2989.28 1515.36V1394.65C2989.47 1391.72 2989.08 1389.38 2988.1 1387.62C2987.13 1385.67 2986.05 1384.2 2984.88 1383.23C2983.71 1382.25 2982.54 1381.76 2981.37 1381.76C2980.78 1381.76 2979.8 1382.25 2978.44 1383.23C2976.87 1384.2 2975.7 1385.67 2974.92 1387.62C2973.94 1389.38 2973.36 1391.72 2973.16 1394.65V1490.75C2972.97 1502.07 2970.62 1511.45 2966.13 1518.87C2961.44 1526.29 2956.07 1531.57 2950.02 1534.69C2943.96 1537.82 2937.91 1539.38 2931.85 1539.38C2925.8 1539.38 2919.84 1537.82 2913.98 1534.69C2907.93 1531.37 2902.75 1526.1 2898.46 1518.87C2893.96 1511.45 2891.52 1502.07 2891.13 1490.75C2890.94 1488.79 2890.84 1487.33 2890.84 1486.35V1368.87C2890.84 1363.4 2892.5 1358.81 2895.82 1355.1C2898.94 1351.2 2902.85 1349.24 2907.54 1349.24ZM2887.62 1291.53C2887.81 1286.25 2889.76 1281.76 2893.48 1278.05C2896.99 1274.34 2901.39 1272.39 2906.66 1272.19H3008.03C3019.75 1273.36 3026.09 1279.81 3027.07 1291.53C3027.07 1297 3025.31 1301.78 3021.8 1305.88C3018.08 1309.79 3013.5 1311.74 3008.03 1311.74H2906.66C2901.19 1311.55 2896.7 1309.5 2893.18 1305.59C2889.47 1301.68 2887.62 1297 2887.62 1291.53ZM2849.53 1316.14C2844.06 1316.14 2839.37 1313.79 2835.47 1309.11C2831.56 1304.42 2829.61 1298.75 2829.61 1292.11C2829.61 1285.47 2831.56 1279.81 2835.47 1275.12C2839.37 1270.43 2844.06 1268.09 2849.53 1268.09C2855.19 1268.09 2859.98 1270.43 2863.89 1275.12C2867.79 1279.81 2869.75 1285.47 2869.75 1292.11C2869.75 1298.75 2867.79 1304.42 2863.89 1309.11C2859.98 1313.79 2855.19 1316.14 2849.53 1316.14ZM2937.42 1072.09C2932.54 1072.09 2930 1074.63 2929.8 1079.71V1182.25C2930 1185.96 2931.66 1189.18 2934.78 1191.92C2937.71 1194.65 2941.23 1196.7 2945.33 1198.07C2949.24 1199.24 2953.24 1199.83 2957.34 1199.83C2961.25 1199.83 2965.25 1199.24 2969.35 1198.07C2973.26 1196.7 2976.78 1194.65 2979.9 1191.92C2982.83 1189.18 2984.3 1185.96 2984.3 1182.25V1107.25C2984.3 1101.78 2986.25 1097.19 2990.16 1093.48C2993.87 1089.57 2998.46 1087.62 3003.92 1087.62C3009.39 1087.62 3013.98 1089.57 3017.69 1093.48C3021.6 1097.19 3023.55 1101.78 3023.55 1107.25V1181.08C3023.36 1194.75 3019.55 1206.08 3012.13 1215.06C3004.51 1223.85 2996.01 1230.2 2986.64 1234.11C2977.07 1237.82 2967.21 1239.67 2957.05 1239.67C2947.28 1239.67 2937.71 1237.72 2928.34 1233.81C2918.77 1229.91 2910.27 1223.56 2902.85 1214.77C2895.23 1205.98 2891.13 1192.99 2890.55 1175.8V1052.76C2890.55 1047.29 2892.4 1042.6 2896.11 1038.7C2899.63 1034.79 2904.12 1032.74 2909.59 1032.54H3002.17C3017.79 1032.54 3032.54 1034.69 3046.41 1038.99C3058.71 1042.89 3069.06 1049.34 3077.46 1058.32C3086.05 1067.11 3090.74 1078.34 3091.52 1092.02V1193.38C3091.33 1198.66 3089.37 1203.15 3085.66 1206.86C3082.15 1210.38 3077.75 1212.23 3072.48 1212.43C3067.01 1212.43 3062.32 1210.67 3058.42 1207.15C3054.51 1203.44 3052.46 1198.85 3052.26 1193.38V1101.98C3051.87 1094.55 3049.04 1088.4 3043.77 1083.52C3038.5 1078.64 3032.34 1075.51 3025.31 1074.14C3018.28 1072.78 3009.2 1072.09 2998.07 1072.09H2937.42ZM2886.15 899.535C2886.15 889.379 2887.32 879.418 2889.67 869.652C2892.01 859.691 2895.53 850.219 2900.21 841.234C2904.71 832.25 2910.76 824.34 2918.38 817.504C2926 810.473 2935.08 806.664 2945.62 806.078H2957.93H3008.03C3019.75 807.25 3026.09 813.695 3027.07 825.414C3027.07 830.883 3025.31 835.668 3021.8 839.77C3018.08 843.676 3013.5 845.629 3008.03 845.629H2995.14H2954.71C2948.65 846.02 2943.67 848.363 2939.76 852.66C2935.66 856.762 2932.44 861.449 2930.1 866.723C2927.75 871.801 2926 877.172 2924.82 882.836C2923.65 888.305 2923.07 893.871 2923.07 899.535C2923.07 905.199 2923.65 910.863 2924.82 916.527C2926 921.996 2927.75 927.367 2930.1 932.641C2932.44 937.719 2935.66 942.406 2939.76 946.703C2943.67 950.805 2948.65 953.051 2954.71 953.441H2995.14H3008.03C3019.75 954.418 3026.09 960.766 3027.07 972.484C3027.07 977.953 3025.31 982.738 3021.8 986.84C3018.08 990.746 3013.5 992.699 3008.03 992.699H2957.93H2945.62C2935.08 992.113 2926 988.402 2918.38 981.566C2910.76 974.73 2904.71 966.82 2900.21 957.836C2895.53 948.852 2892.01 939.477 2889.67 929.711C2887.32 919.75 2886.15 909.691 2886.15 899.535ZM3023.55 708.812C3022.97 726 3018.96 738.988 3011.54 747.777C3003.92 756.566 2995.43 762.914 2986.05 766.82C2976.48 770.727 2966.82 772.68 2957.05 772.68C2946.89 772.68 2937.13 770.824 2927.75 767.113C2918.18 763.207 2909.69 756.859 2902.26 748.07C2894.65 739.086 2890.74 727.758 2890.55 714.086V602.758C2890.55 597.289 2892.4 592.699 2896.11 588.988C2899.63 585.082 2903.92 583.129 2909 583.129C2914.28 583.129 2918.77 585.082 2922.48 588.988C2926 592.699 2927.75 597.289 2927.75 602.758V712.328C2927.75 716.625 2929.22 720.434 2932.15 723.754C2935.08 726.879 2938.89 729.223 2943.57 730.785C2948.26 732.152 2952.85 732.836 2957.34 732.836C2962.23 732.836 2967.01 732.152 2971.7 730.785C2976.39 729.223 2980.19 726.879 2983.12 723.754C2985.86 720.434 2987.32 716.625 2987.52 712.328L2987.52 602.758C2987.52 597.289 2989.28 592.699 2992.79 588.988C2996.31 585.082 3000.51 583.129 3005.39 583.129C3010.47 583.129 3014.76 585.082 3018.28 588.988C3021.8 592.699 3023.55 597.289 3023.55 602.758L3023.55 708.812ZM2956.46 586.645C2960.17 586.645 2963.4 588.305 2966.13 591.625C2968.67 594.555 2969.94 598.266 2969.94 602.758L2969.94 698.559C2969.94 703.051 2968.67 706.859 2966.13 709.984C2963.4 713.109 2960.17 714.672 2956.46 714.672C2952.95 714.672 2949.82 713.109 2947.09 709.984C2944.55 706.859 2943.28 703.051 2943.28 698.559V602.758C2943.28 598.266 2944.65 594.457 2947.38 591.332C2949.92 588.207 2952.95 586.645 2956.46 586.645ZM2927.46 543.285C2918.08 539.574 2909.69 533.324 2902.26 524.535C2894.65 515.551 2890.74 504.223 2890.55 490.551V380.395C2890.55 374.926 2892.5 370.336 2896.41 366.625C2900.12 362.719 2904.71 360.766 2910.17 360.766C2915.64 360.766 2920.33 362.719 2924.24 366.625C2927.95 370.336 2929.8 374.926 2929.8 380.395V491.723C2929.8 495.434 2931.37 498.656 2934.49 501.391C2937.42 504.125 2940.94 506.273 2945.04 507.836C2949.14 509.203 2953.05 509.887 2956.76 509.887H3008.03C3019.75 511.059 3026.09 517.504 3027.07 529.223C3027.07 534.691 3025.31 539.477 3021.8 543.578C3018.08 547.484 3013.5 549.438 3008.03 549.438H2957.05V549.145C2946.89 549.145 2937.03 547.191 2927.46 543.285Z" fill="#fff"/>
</svg>
